<?xml version="1.0" encoding="UTF-8" standalone="no"?>
<svg
   xmlns:dc="http://purl.org/dc/elements/1.1/"
   xmlns:cc="http://creativecommons.org/ns#"
   xmlns:rdf="http://www.w3.org/1999/02/22-rdf-syntax-ns#"
   xmlns:svg="http://www.w3.org/2000/svg"
   xmlns="http://www.w3.org/2000/svg"
   xmlns:sodipodi="http://sodipodi.sourceforge.net/DTD/sodipodi-0.dtd"
   xmlns:inkscape="http://www.inkscape.org/namespaces/inkscape"
   width="744.094488189"
   height="1052.36220472"
   id="svg3336"
   version="1.1"
   inkscape:version="0.91 r13725"
   sodipodi:docname="X Carriage.svg">
  <metadata
     id="metadata3967">
    <rdf:RDF>
      <cc:Work
         rdf:about="">
        <dc:format>image/svg+xml</dc:format>
        <dc:type
           rdf:resource="http://purl.org/dc/dcmitype/StillImage" />
        <dc:title></dc:title>
      </cc:Work>
    </rdf:RDF>
  </metadata>
  <sodipodi:namedview
     pagecolor="#ffffff"
     bordercolor="#666666"
     borderopacity="1"
     objecttolerance="10"
     gridtolerance="10"
     guidetolerance="10"
     inkscape:pageopacity="0"
     inkscape:pageshadow="2"
     inkscape:window-width="1440"
     inkscape:window-height="837"
     id="namedview3965"
     showgrid="false"
     inkscape:zoom="0.21434357"
     inkscape:cx="290.0175"
     inkscape:cy="1521.5225"
     inkscape:window-x="-8"
     inkscape:window-y="-8"
     inkscape:window-maximized="1"
     inkscape:current-layer="g3631" />
  <desc
     id="desc3338">C:\Users\Noah\Documents\Printer\lasercut\X Carriage.DXF - scale = 2.000000, origin = (0.000000, 0.000000), auto = False</desc>
  <defs
     id="defs3340">
    <marker
       refY="0.0"
       refX="0.0"
       style="overflow:visible"
       id="DistanceX"
       orient="auto">
      <path
         style="stroke:#000000; stroke-width:0.5"
         d="M 3,-3 L -3,3 M 0,-5 L  0,5"
         id="path3343" />
    </marker>
    <pattern
       height="8"
       width="8"
       patternUnits="userSpaceOnUse"
       y="0"
       x="0"
       id="Hatch">
      <path
         linecap="square"
         stroke="#000000"
         stroke-width="0.25"
         d="M8 4 l-4,4"
         id="path3346" />
      <path
         linecap="square"
         stroke="#000000"
         stroke-width="0.25"
         d="M6 2 l-4,4"
         id="path3348" />
      <path
         linecap="square"
         stroke="#000000"
         stroke-width="0.25"
         d="M4 0 l-4,4"
         id="path3350" />
    </pattern>
    <symbol
       id="*Model_Space" />
    <symbol
       id="*Paper_Space" />
    <symbol
       id="*Paper_Space0" />
    <symbol
       id="SW_NOTE_0">
      <text
         y="1038.659516"
         x="0.000000"
         style="font-size: 10.6px; fill: #000000; font-family: Arial"
         sodipodi:linespacing="125%"
         id="text3356">
        <tspan
           sodipodi:role="line"
           id="tspan3358">UNLESS OTHERWISE SPECIFIED:</tspan>
      </text>
      <text
         y="1056.376051"
         x="0.000000"
         style="font-size: 10.6px; fill: #000000; font-family: Arial"
         sodipodi:linespacing="125%"
         id="text3360">
        <tspan
           sodipodi:role="line"
           id="tspan3362">DIMENSIONS ARE IN MILLIMETERS</tspan>
      </text>
      <text
         y="1074.092586"
         x="0.000000"
         style="font-size: 10.6px; fill: #000000; font-family: Arial"
         sodipodi:linespacing="125%"
         id="text3364">
        <tspan
           sodipodi:role="line"
           id="tspan3366">SURFACE FINISH:</tspan>
      </text>
      <text
         y="1091.809121"
         x="0.000000"
         style="font-size: 10.6px; fill: #000000; font-family: Arial"
         sodipodi:linespacing="125%"
         id="text3368">
        <tspan
           sodipodi:role="line"
           id="tspan3370">TOLERANCES:</tspan>
      </text>
      <text
         y="1109.525656"
         x="11.958661"
         style="font-size: 10.6px; fill: #000000; font-family: Arial"
         sodipodi:linespacing="125%"
         id="text3372">
        <tspan
           sodipodi:role="line"
           id="tspan3374">LINEAR:</tspan>
      </text>
      <text
         y="1127.242191"
         x="11.958661"
         style="font-size: 10.6px; fill: #000000; font-family: Arial"
         sodipodi:linespacing="125%"
         id="text3376">
        <tspan
           sodipodi:role="line"
           id="tspan3378">ANGULAR:</tspan>
      </text>
    </symbol>
    <symbol
       id="SW_NOTE_1">
      <text
         y="1038.659516"
         x="0.000000"
         style="font-size: 10.6px; fill: #000000; font-family: Arial"
         sodipodi:linespacing="125%"
         id="text3381">
        <tspan
           sodipodi:role="line"
           id="tspan3383">DEBURR AND</tspan>
      </text>
      <text
         y="1056.376051"
         x="0.000000"
         style="font-size: 10.6px; fill: #000000; font-family: Arial"
         sodipodi:linespacing="125%"
         id="text3385">
        <tspan
           sodipodi:role="line"
           id="tspan3387">BREAK SHARP</tspan>
      </text>
      <text
         y="1074.092586"
         x="0.000000"
         style="font-size: 10.6px; fill: #000000; font-family: Arial"
         sodipodi:linespacing="125%"
         id="text3389">
        <tspan
           sodipodi:role="line"
           id="tspan3391">EDGES</tspan>
      </text>
    </symbol>
    <symbol
       id="SW_CENTERMARKSYMBOL_0">
      <path
         style="stroke:#000000;fill:none;stroke-linecap: round"
         d="M 0.000000,1052.362205 0.000000,1043.503937"
         id="path3394" />
      <path
         style="stroke:#000000;fill:none;stroke-linecap: round"
         d="M 0.000000,1052.362205 -8.858268,1052.362205"
         id="path3396" />
      <path
         style="stroke:#000000;fill:none;stroke-linecap: round"
         d="M 0.000000,1052.362205 0.000000,1061.220472"
         id="path3398" />
      <path
         style="stroke:#000000;fill:none;stroke-linecap: round"
         d="M 0.000000,1052.362205 8.858268,1052.362205"
         id="path3400" />
      <path
         style="stroke:#000000;fill:none;stroke-linecap: round"
         d="M 0.000000,1043.503937 0.000000,1034.645669"
         id="path3402" />
      <path
         style="stroke:#000000;fill:none;stroke-linecap: round"
         d="M -8.858268,1052.362205 -17.716535,1052.362205"
         id="path3404" />
      <path
         style="stroke:#000000;fill:none;stroke-linecap: round"
         d="M 0.000000,1061.220472 0.000000,1070.078740"
         id="path3406" />
      <path
         style="stroke:#000000;fill:none;stroke-linecap: round"
         d="M 8.858268,1052.362205 17.716535,1052.362205"
         id="path3408" />
    </symbol>
    <symbol
       id="SW_CENTERMARKSYMBOL_1">
      <path
         style="stroke:#000000;fill:none;stroke-linecap: round"
         d="M 0.000000,1052.362205 0.000000,1043.503937"
         id="path3411" />
      <path
         style="stroke:#000000;fill:none;stroke-linecap: round"
         d="M 0.000000,1052.362205 -8.858268,1052.362205"
         id="path3413" />
      <path
         style="stroke:#000000;fill:none;stroke-linecap: round"
         d="M 0.000000,1052.362205 0.000000,1061.220472"
         id="path3415" />
      <path
         style="stroke:#000000;fill:none;stroke-linecap: round"
         d="M 0.000000,1052.362205 8.858268,1052.362205"
         id="path3417" />
      <path
         style="stroke:#000000;fill:none;stroke-linecap: round"
         d="M 0.000000,1043.503937 0.000000,1034.645669"
         id="path3419" />
      <path
         style="stroke:#000000;fill:none;stroke-linecap: round"
         d="M -8.858268,1052.362205 -17.716535,1052.362205"
         id="path3421" />
      <path
         style="stroke:#000000;fill:none;stroke-linecap: round"
         d="M 0.000000,1061.220472 0.000000,1070.078740"
         id="path3423" />
      <path
         style="stroke:#000000;fill:none;stroke-linecap: round"
         d="M 8.858268,1052.362205 17.716535,1052.362205"
         id="path3425" />
    </symbol>
    <symbol
       id="SW_CENTERMARKSYMBOL_2">
      <path
         style="stroke:#000000;fill:none;stroke-linecap: round"
         d="M 0.000000,1052.362205 0.000000,1043.503937"
         id="path3428" />
      <path
         style="stroke:#000000;fill:none;stroke-linecap: round"
         d="M 0.000000,1052.362205 -8.858268,1052.362205"
         id="path3430" />
      <path
         style="stroke:#000000;fill:none;stroke-linecap: round"
         d="M 0.000000,1052.362205 0.000000,1061.220472"
         id="path3432" />
      <path
         style="stroke:#000000;fill:none;stroke-linecap: round"
         d="M 0.000000,1052.362205 8.858268,1052.362205"
         id="path3434" />
      <path
         style="stroke:#000000;fill:none;stroke-linecap: round"
         d="M 0.000000,1034.645669 0.000000,1030.748031"
         id="path3436" />
      <path
         style="stroke:#000000;fill:none;stroke-linecap: round"
         d="M -17.716535,1052.362205 -21.614173,1052.362205"
         id="path3438" />
      <path
         style="stroke:#000000;fill:none;stroke-linecap: round"
         d="M 0.000000,1070.078740 0.000000,1073.976378"
         id="path3440" />
      <path
         style="stroke:#000000;fill:none;stroke-linecap: round"
         d="M 17.716535,1052.362205 21.614173,1052.362205"
         id="path3442" />
    </symbol>
    <symbol
       id="SW_CENTERMARKSYMBOL_3">
      <path
         style="stroke:#000000;fill:none;stroke-linecap: round"
         d="M 0.000000,1052.362205 0.000000,1043.503937"
         id="path3445" />
      <path
         style="stroke:#000000;fill:none;stroke-linecap: round"
         d="M 0.000000,1052.362205 -8.858268,1052.362205"
         id="path3447" />
      <path
         style="stroke:#000000;fill:none;stroke-linecap: round"
         d="M 0.000000,1052.362205 0.000000,1061.220472"
         id="path3449" />
      <path
         style="stroke:#000000;fill:none;stroke-linecap: round"
         d="M 0.000000,1052.362205 8.858268,1052.362205"
         id="path3451" />
      <path
         style="stroke:#000000;fill:none;stroke-linecap: round"
         d="M 0.000000,1034.645669 0.000000,1030.748031"
         id="path3453" />
      <path
         style="stroke:#000000;fill:none;stroke-linecap: round"
         d="M -17.716535,1052.362205 -21.614173,1052.362205"
         id="path3455" />
      <path
         style="stroke:#000000;fill:none;stroke-linecap: round"
         d="M 0.000000,1070.078740 0.000000,1073.976378"
         id="path3457" />
      <path
         style="stroke:#000000;fill:none;stroke-linecap: round"
         d="M 17.716535,1052.362205 21.614173,1052.362205"
         id="path3459" />
    </symbol>
    <symbol
       id="SW_CENTERMARKSYMBOL_4">
      <path
         style="stroke:#000000;fill:none;stroke-linecap: round"
         d="M 0.000000,1052.362205 0.000000,1043.503937"
         id="path3462" />
      <path
         style="stroke:#000000;fill:none;stroke-linecap: round"
         d="M 0.000000,1052.362205 -8.858268,1052.362205"
         id="path3464" />
      <path
         style="stroke:#000000;fill:none;stroke-linecap: round"
         d="M 0.000000,1052.362205 0.000000,1061.220472"
         id="path3466" />
      <path
         style="stroke:#000000;fill:none;stroke-linecap: round"
         d="M 0.000000,1052.362205 8.858268,1052.362205"
         id="path3468" />
      <path
         style="stroke:#000000;fill:none;stroke-linecap: round"
         d="M 0.000000,1043.503937 0.000000,1036.417323"
         id="path3470" />
      <path
         style="stroke:#000000;fill:none;stroke-linecap: round"
         d="M -8.858268,1052.362205 -15.944882,1052.362205"
         id="path3472" />
      <path
         style="stroke:#000000;fill:none;stroke-linecap: round"
         d="M 0.000000,1061.220472 0.000000,1068.307087"
         id="path3474" />
      <path
         style="stroke:#000000;fill:none;stroke-linecap: round"
         d="M 8.858268,1052.362205 15.944882,1052.362205"
         id="path3476" />
    </symbol>
    <symbol
       id="SW_CENTERMARKSYMBOL_5">
      <path
         style="stroke:#000000;fill:none;stroke-linecap: round"
         d="M 0.000000,1052.362205 0.000000,1043.503937"
         id="path3479" />
      <path
         style="stroke:#000000;fill:none;stroke-linecap: round"
         d="M 0.000000,1052.362205 -8.858268,1052.362205"
         id="path3481" />
      <path
         style="stroke:#000000;fill:none;stroke-linecap: round"
         d="M 0.000000,1052.362205 0.000000,1061.220472"
         id="path3483" />
      <path
         style="stroke:#000000;fill:none;stroke-linecap: round"
         d="M 0.000000,1052.362205 8.858268,1052.362205"
         id="path3485" />
      <path
         style="stroke:#000000;fill:none;stroke-linecap: round"
         d="M 0.000000,1043.503937 0.000000,1036.417323"
         id="path3487" />
      <path
         style="stroke:#000000;fill:none;stroke-linecap: round"
         d="M -8.858268,1052.362205 -15.944882,1052.362205"
         id="path3489" />
      <path
         style="stroke:#000000;fill:none;stroke-linecap: round"
         d="M 0.000000,1061.220472 0.000000,1068.307087"
         id="path3491" />
      <path
         style="stroke:#000000;fill:none;stroke-linecap: round"
         d="M 8.858268,1052.362205 15.944882,1052.362205"
         id="path3493" />
    </symbol>
    <symbol
       id="SW_CENTERMARKSYMBOL_6">
      <path
         style="stroke:#000000;fill:none;stroke-linecap: round"
         d="M 0.000000,1052.362205 0.000000,1043.503937"
         id="path3496" />
      <path
         style="stroke:#000000;fill:none;stroke-linecap: round"
         d="M 0.000000,1052.362205 -8.858268,1052.362205"
         id="path3498" />
      <path
         style="stroke:#000000;fill:none;stroke-linecap: round"
         d="M 0.000000,1052.362205 0.000000,1061.220472"
         id="path3500" />
      <path
         style="stroke:#000000;fill:none;stroke-linecap: round"
         d="M 0.000000,1052.362205 8.858268,1052.362205"
         id="path3502" />
      <path
         style="stroke:#000000;fill:none;stroke-linecap: round"
         d="M 0.000000,1043.503937 0.000000,1036.417323"
         id="path3504" />
      <path
         style="stroke:#000000;fill:none;stroke-linecap: round"
         d="M -8.858268,1052.362205 -15.944882,1052.362205"
         id="path3506" />
      <path
         style="stroke:#000000;fill:none;stroke-linecap: round"
         d="M 0.000000,1061.220472 0.000000,1068.307087"
         id="path3508" />
      <path
         style="stroke:#000000;fill:none;stroke-linecap: round"
         d="M 8.858268,1052.362205 15.944882,1052.362205"
         id="path3510" />
    </symbol>
    <symbol
       id="SW_CENTERMARKSYMBOL_7">
      <path
         style="stroke:#000000;fill:none;stroke-linecap: round"
         d="M 0.000000,1052.362205 0.000000,1043.503937"
         id="path3513" />
      <path
         style="stroke:#000000;fill:none;stroke-linecap: round"
         d="M 0.000000,1052.362205 -8.858268,1052.362205"
         id="path3515" />
      <path
         style="stroke:#000000;fill:none;stroke-linecap: round"
         d="M 0.000000,1052.362205 0.000000,1061.220472"
         id="path3517" />
      <path
         style="stroke:#000000;fill:none;stroke-linecap: round"
         d="M 0.000000,1052.362205 8.858268,1052.362205"
         id="path3519" />
      <path
         style="stroke:#000000;fill:none;stroke-linecap: round"
         d="M 0.000000,1043.503937 0.000000,1036.417323"
         id="path3521" />
      <path
         style="stroke:#000000;fill:none;stroke-linecap: round"
         d="M -8.858268,1052.362205 -15.944882,1052.362205"
         id="path3523" />
      <path
         style="stroke:#000000;fill:none;stroke-linecap: round"
         d="M 0.000000,1061.220472 0.000000,1068.307087"
         id="path3525" />
      <path
         style="stroke:#000000;fill:none;stroke-linecap: round"
         d="M 8.858268,1052.362205 15.944882,1052.362205"
         id="path3527" />
    </symbol>
    <symbol
       id="SW_CENTERMARKSYMBOL_8">
      <path
         style="stroke:#000000;fill:none;stroke-linecap: round"
         d="M 0.000000,1052.362205 0.000000,1043.503937"
         id="path3530" />
      <path
         style="stroke:#000000;fill:none;stroke-linecap: round"
         d="M 0.000000,1052.362205 -8.858268,1052.362205"
         id="path3532" />
      <path
         style="stroke:#000000;fill:none;stroke-linecap: round"
         d="M 0.000000,1052.362205 0.000000,1061.220472"
         id="path3534" />
      <path
         style="stroke:#000000;fill:none;stroke-linecap: round"
         d="M 0.000000,1052.362205 8.858268,1052.362205"
         id="path3536" />
      <path
         style="stroke:#000000;fill:none;stroke-linecap: round"
         d="M 0.000000,1043.503937 0.000000,1038.188976"
         id="path3538" />
      <path
         style="stroke:#000000;fill:none;stroke-linecap: round"
         d="M -8.858268,1052.362205 -14.173228,1052.362205"
         id="path3540" />
      <path
         style="stroke:#000000;fill:none;stroke-linecap: round"
         d="M 0.000000,1061.220472 0.000000,1066.535433"
         id="path3542" />
      <path
         style="stroke:#000000;fill:none;stroke-linecap: round"
         d="M 8.858268,1052.362205 14.173228,1052.362205"
         id="path3544" />
    </symbol>
    <symbol
       id="SW_CENTERMARKSYMBOL_9">
      <path
         style="stroke:#000000;fill:none;stroke-linecap: round"
         d="M 0.000000,1052.362205 0.000000,1043.503937"
         id="path3547" />
      <path
         style="stroke:#000000;fill:none;stroke-linecap: round"
         d="M 0.000000,1052.362205 -8.858268,1052.362205"
         id="path3549" />
      <path
         style="stroke:#000000;fill:none;stroke-linecap: round"
         d="M 0.000000,1052.362205 0.000000,1061.220472"
         id="path3551" />
      <path
         style="stroke:#000000;fill:none;stroke-linecap: round"
         d="M 0.000000,1052.362205 8.858268,1052.362205"
         id="path3553" />
      <path
         style="stroke:#000000;fill:none;stroke-linecap: round"
         d="M 0.000000,1043.503937 0.000000,1038.188976"
         id="path3555" />
      <path
         style="stroke:#000000;fill:none;stroke-linecap: round"
         d="M -8.858268,1052.362205 -14.173228,1052.362205"
         id="path3557" />
      <path
         style="stroke:#000000;fill:none;stroke-linecap: round"
         d="M 0.000000,1061.220472 0.000000,1066.535433"
         id="path3559" />
      <path
         style="stroke:#000000;fill:none;stroke-linecap: round"
         d="M 8.858268,1052.362205 14.173228,1052.362205"
         id="path3561" />
    </symbol>
    <symbol
       id="SW_CENTERMARKSYMBOL_10">
      <path
         style="stroke:#000000;fill:none;stroke-linecap: round"
         d="M 0.000000,1052.362205 0.000000,1043.503937"
         id="path3564" />
      <path
         style="stroke:#000000;fill:none;stroke-linecap: round"
         d="M 0.000000,1052.362205 -8.858268,1052.362205"
         id="path3566" />
      <path
         style="stroke:#000000;fill:none;stroke-linecap: round"
         d="M 0.000000,1052.362205 0.000000,1061.220472"
         id="path3568" />
      <path
         style="stroke:#000000;fill:none;stroke-linecap: round"
         d="M 0.000000,1052.362205 8.858268,1052.362205"
         id="path3570" />
      <path
         style="stroke:#000000;fill:none;stroke-linecap: round"
         d="M 0.000000,1043.503937 0.000000,1036.417323"
         id="path3572" />
      <path
         style="stroke:#000000;fill:none;stroke-linecap: round"
         d="M -8.858268,1052.362205 -15.944882,1052.362205"
         id="path3574" />
      <path
         style="stroke:#000000;fill:none;stroke-linecap: round"
         d="M 0.000000,1061.220472 0.000000,1068.307087"
         id="path3576" />
      <path
         style="stroke:#000000;fill:none;stroke-linecap: round"
         d="M 8.858268,1052.362205 15.944882,1052.362205"
         id="path3578" />
    </symbol>
    <symbol
       id="SW_CENTERMARKSYMBOL_11">
      <path
         style="stroke:#000000;fill:none;stroke-linecap: round"
         d="M 0.000000,1052.362205 0.000000,1043.503937"
         id="path3581" />
      <path
         style="stroke:#000000;fill:none;stroke-linecap: round"
         d="M 0.000000,1052.362205 -8.858268,1052.362205"
         id="path3583" />
      <path
         style="stroke:#000000;fill:none;stroke-linecap: round"
         d="M 0.000000,1052.362205 0.000000,1061.220472"
         id="path3585" />
      <path
         style="stroke:#000000;fill:none;stroke-linecap: round"
         d="M 0.000000,1052.362205 8.858268,1052.362205"
         id="path3587" />
      <path
         style="stroke:#000000;fill:none;stroke-linecap: round"
         d="M 0.000000,1043.503937 0.000000,1036.417323"
         id="path3589" />
      <path
         style="stroke:#000000;fill:none;stroke-linecap: round"
         d="M -8.858268,1052.362205 -15.944882,1052.362205"
         id="path3591" />
      <path
         style="stroke:#000000;fill:none;stroke-linecap: round"
         d="M 0.000000,1061.220472 0.000000,1068.307087"
         id="path3593" />
      <path
         style="stroke:#000000;fill:none;stroke-linecap: round"
         d="M 8.858268,1052.362205 15.944882,1052.362205"
         id="path3595" />
    </symbol>
    <symbol
       id="SW_CENTERMARKSYMBOL_12">
      <path
         style="stroke:#000000;fill:none;stroke-linecap: round"
         d="M 0.000000,1052.362205 0.000000,1043.503937"
         id="path3598" />
      <path
         style="stroke:#000000;fill:none;stroke-linecap: round"
         d="M 0.000000,1052.362205 -8.858268,1052.362205"
         id="path3600" />
      <path
         style="stroke:#000000;fill:none;stroke-linecap: round"
         d="M 0.000000,1052.362205 0.000000,1061.220472"
         id="path3602" />
      <path
         style="stroke:#000000;fill:none;stroke-linecap: round"
         d="M 0.000000,1052.362205 8.858268,1052.362205"
         id="path3604" />
      <path
         style="stroke:#000000;fill:none;stroke-linecap: round"
         d="M 0.000000,1043.503937 0.000000,1038.188976"
         id="path3606" />
      <path
         style="stroke:#000000;fill:none;stroke-linecap: round"
         d="M -8.858268,1052.362205 -14.173228,1052.362205"
         id="path3608" />
      <path
         style="stroke:#000000;fill:none;stroke-linecap: round"
         d="M 0.000000,1061.220472 0.000000,1066.535433"
         id="path3610" />
      <path
         style="stroke:#000000;fill:none;stroke-linecap: round"
         d="M 8.858268,1052.362205 14.173228,1052.362205"
         id="path3612" />
    </symbol>
    <symbol
       id="SW_CENTERMARKSYMBOL_13">
      <path
         style="stroke:#000000;fill:none;stroke-linecap: round"
         d="M 0.000000,1052.362205 0.000000,1043.503937"
         id="path3615" />
      <path
         style="stroke:#000000;fill:none;stroke-linecap: round"
         d="M 0.000000,1052.362205 -8.858268,1052.362205"
         id="path3617" />
      <path
         style="stroke:#000000;fill:none;stroke-linecap: round"
         d="M 0.000000,1052.362205 0.000000,1061.220472"
         id="path3619" />
      <path
         style="stroke:#000000;fill:none;stroke-linecap: round"
         d="M 0.000000,1052.362205 8.858268,1052.362205"
         id="path3621" />
      <path
         style="stroke:#000000;fill:none;stroke-linecap: round"
         d="M 0.000000,1043.503937 0.000000,1038.188976"
         id="path3623" />
      <path
         style="stroke:#000000;fill:none;stroke-linecap: round"
         d="M -8.858268,1052.362205 -14.173228,1052.362205"
         id="path3625" />
      <path
         style="stroke:#000000;fill:none;stroke-linecap: round"
         d="M 0.000000,1061.220472 0.000000,1066.535433"
         id="path3627" />
      <path
         style="stroke:#000000;fill:none;stroke-linecap: round"
         d="M 8.858268,1052.362205 14.173228,1052.362205"
         id="path3629" />
    </symbol>
  </defs>
  <g
     inkscape:label="0"
     inkscape:groupmode="layer"
     id="g3631">
    <path
       style="stroke:#000000;stroke-width:0.5;fill:none;stroke-linecap: round"
       d="M 676.131499,-59.939045 A 8.858268,8.858268 -0.000000 1 0 658.414964,-59.939045 8.858268,8.858268 -0.000000 1 0 676.131499,-59.939045 z"
       id="path3891" />
    <path
       style="stroke:#000000;stroke-width:0.5;fill:none;stroke-linecap: round"
       d="M 817.863783,-59.939045 A 8.858268,8.858268 -0.000000 1 0 800.147247,-59.939045 8.858268,8.858268 -0.000000 1 0 817.863783,-59.939045 z"
       id="path3893" />
    <path
       style="stroke:#000000;stroke-width:0.5;fill:none;stroke-linecap: round"
       d="M 821.761421,-407.537470 A 12.755906,12.755906 -0.000000 1 0 796.249610,-407.537470 12.755906,12.755906 -0.000000 1 0 821.761421,-407.537470 z"
       id="path3895" />
    <path
       style="stroke:#000000;stroke-width:0.5;fill:none;stroke-linecap: round"
       d="M 680.029137,-407.537470 A 12.755906,12.755906 -0.000000 1 0 654.517326,-407.537470 12.755906,12.755906 -0.000000 1 0 680.029137,-407.537470 z"
       id="path3897" />
    <path
       style="stroke:#000000;stroke-width:0.5;fill:none;stroke-linecap: round"
       d="M 805.462208,-276.257942 A 7.086614,7.086614 -0.000000 1 0 791.288980,-276.257942 7.086614,7.086614 -0.000000 1 0 805.462208,-276.257942 z"
       id="path3899" />
    <path
       style="stroke:#000000;stroke-width:0.5;fill:none;stroke-linecap: round"
       d="M 840.895279,-276.257942 A 7.086614,7.086614 -0.000000 1 0 826.722051,-276.257942 7.086614,7.086614 -0.000000 1 0 840.895279,-276.257942 z"
       id="path3901" />
    <path
       style="stroke:#000000;stroke-width:0.5;fill:none;stroke-linecap: round"
       d="M 840.895279,-169.958730 A 7.086614,7.086614 -0.000000 1 0 826.722051,-169.958730 7.086614,7.086614 -0.000000 1 0 840.895279,-169.958730 z"
       id="path3903" />
    <path
       style="stroke:#000000;stroke-width:0.5;fill:none;stroke-linecap: round"
       d="M 805.462208,-169.958730 A 7.086614,7.086614 -0.000000 1 0 791.288980,-169.958730 7.086614,7.086614 -0.000000 1 0 805.462208,-169.958730 z"
       id="path3905" />
    <path
       style="stroke:#000000;stroke-width:0.5;fill:none;stroke-linecap: round"
       d="M 718.651184,-56.515568 A 5.314961,5.314961 -0.000000 1 0 708.021263,-56.515568 5.314961,5.314961 -0.000000 1 0 718.651184,-56.515568 z"
       id="path3907" />
    <path
       style="stroke:#000000;stroke-width:0.5;fill:none;stroke-linecap: round"
       d="M 754.084255,-56.515568 A 5.314961,5.314961 -0.000000 1 0 743.454334,-56.515568 5.314961,5.314961 -0.000000 1 0 754.084255,-56.515568 z"
       id="path3909" />
    <path
       style="stroke:#000000;stroke-width:0.5;fill:none;stroke-linecap: round"
       d="M 649.556696,-276.257942 A 7.086614,7.086614 -0.000000 1 0 635.383468,-276.257942 7.086614,7.086614 -0.000000 1 0 649.556696,-276.257942 z"
       id="path3911" />
    <path
       style="stroke:#000000;stroke-width:0.5;fill:none;stroke-linecap: round"
       d="M 684.989767,-276.257942 A 7.086614,7.086614 -0.000000 1 0 670.816539,-276.257942 7.086614,7.086614 -0.000000 1 0 684.989767,-276.257942 z"
       id="path3913" />
    <path
       style="stroke:#000000;stroke-width:0.5;fill:none;stroke-linecap: round"
       d="M 764.714177,-92.005974 A 5.314961,5.314961 -0.000000 1 0 754.084255,-92.005974 5.314961,5.314961 -0.000000 1 0 764.714177,-92.005974 z"
       id="path3915" />
    <path
       style="stroke:#000000;stroke-width:0.5;fill:none;stroke-linecap: round"
       d="M 800.147247,-92.005974 A 5.314961,5.314961 -0.000000 1 0 789.517326,-92.005974 5.314961,5.314961 -0.000000 1 0 800.147247,-92.005974 z"
       id="path3917" />
    <path
       style="stroke:#000000;stroke-width:0.5;fill:none;stroke-linecap: round"
       d="M 629.920536,-38.799032 629.920536,-428.677482"
       id="path3919" />
    <path
       style="stroke:#000000;stroke-width:0.5;fill:none;stroke-linecap: round"
       d="M 846.358211,-428.677482 629.920536,-428.677482"
       id="path3921" />
    <path
       style="stroke:#000000;stroke-width:0.5;fill:none;stroke-linecap: round"
       d="M 846.358211,-38.799032 846.358211,-428.677482"
       id="path3923" />
    <path
       style="stroke:#000000;stroke-width:0.5;fill:none;stroke-linecap: round"
       d="M 629.920536,-38.799032 846.358211,-38.799032"
       id="path3925" />
  </g>
  <g
     inkscape:label="FORMAT"
     inkscape:groupmode="layer"
     id="g3963" />
</svg>
